<svg width="284" height="284" viewBox="0 0 284 284" fill="none" xmlns="http://www.w3.org/2000/svg">
<path d="M284 142C284 179.661 269.039 215.779 242.409 242.409C215.779 269.039 179.661 284 142 284C104.339 284 68.221 269.039 41.5908 242.409C14.9607 215.779 0 179.661 0 142C0 104.339 14.9607 68.221 41.5908 41.5908C68.221 14.9607 104.339 0 142 0C179.661 0 215.779 14.9607 242.409 41.5908C269.039 68.221 284 104.339 284 142V142ZM147.094 104.832C133.285 110.583 105.666 122.475 64.2728 140.509C57.5633 143.171 54.031 145.798 53.7115 148.354C53.179 152.668 58.5928 154.372 65.959 156.697L69.0653 157.673C76.3073 160.034 86.0697 162.785 91.1285 162.892C95.7435 162.998 100.873 161.117 106.535 157.212C145.213 131.102 165.182 117.913 166.424 117.629C167.312 117.416 168.554 117.168 169.37 117.913C170.205 118.641 170.116 120.043 170.027 120.416C169.495 122.706 148.248 142.444 137.261 152.668C133.835 155.863 131.403 158.117 130.906 158.632C129.812 159.75 128.699 160.851 127.569 161.933C120.824 168.43 115.783 173.293 127.836 181.245C133.64 185.079 138.29 188.221 142.923 191.38C147.964 194.824 153.005 198.25 159.537 202.545C161.188 203.61 162.785 204.764 164.33 205.864C170.205 210.053 175.512 213.817 182.026 213.213C185.825 212.858 189.748 209.308 191.736 198.658C196.439 173.506 205.687 119.031 207.817 96.5777C207.947 94.7112 207.87 92.836 207.586 90.9865C207.419 89.4941 206.697 88.1191 205.563 87.1347C203.948 86.0199 202.022 85.4423 200.06 85.484C194.735 85.5727 186.517 88.4305 147.094 104.832V104.832Z" fill="url(#paint0_linear_19_13)"/>
<defs>
<linearGradient id="paint0_linear_19_13" x1="229.5" y1="39" x2="57.5" y2="257" gradientUnits="userSpaceOnUse">
<stop stop-color="#FF5B82"/>
<stop offset="1" stop-color="#83A6FF"/>
</linearGradient>
</defs>
</svg>
