<svg width="284" height="284" viewBox="0 0 284 284" fill="none" xmlns="http://www.w3.org/2000/svg">
<path d="M142 0C63.5755 0 0 63.5755 0 142C0 220.424 63.5755 284 142 284C220.424 284 284 220.424 284 142C284 63.5755 220.424 0 142 0ZM142 48.1018C181.094 48.1018 212.792 79.8002 212.792 118.894C212.792 130.736 209.547 146.369 202.877 155.208L142 235.898L81.1229 155.209C73.7794 145.476 71.2078 131.968 71.2078 118.894C71.208 79.8002 102.906 48.1018 142 48.1018ZM142 89.114C125.551 89.114 112.22 102.445 112.22 118.894C112.22 135.343 125.551 148.674 142 148.674C158.449 148.674 171.78 135.343 171.78 118.894C171.78 102.445 158.449 89.114 142 89.114Z" fill="url(#paint0_linear_19_7)"/>
<defs>
<linearGradient id="paint0_linear_19_7" x1="254" y1="77" x2="36.5" y2="196" gradientUnits="userSpaceOnUse">
<stop stop-color="#FF5B82"/>
<stop offset="1" stop-color="#83A6FF"/>
</linearGradient>
</defs>
</svg>
