<svg width="285" height="285" viewBox="0 0 285 285" fill="none" xmlns="http://www.w3.org/2000/svg">
<path d="M142.5 0C63.7994 0 0 63.7994 0 142.5C0 221.201 63.7994 285 142.5 285C221.201 285 285 221.201 285 142.5C285 63.7994 221.201 0 142.5 0ZM91.2891 56.6034C94.225 56.4302 96.8789 58.1851 98.8907 61.2999L118.373 98.2469C120.424 102.625 119.259 107.313 116.199 110.441L107.275 119.364C106.724 120.119 106.362 120.969 106.353 121.904C109.775 135.151 120.156 147.369 129.315 155.772C138.473 164.175 148.317 175.551 161.095 178.247C162.675 178.687 164.61 178.845 165.74 177.795L176.107 167.236C179.686 164.523 184.863 163.209 188.684 165.427H188.858L224.013 186.179C229.173 189.414 229.708 195.666 226.013 199.469L201.8 223.491C198.224 227.158 193.473 228.391 188.858 228.397C168.445 227.785 149.158 217.766 133.316 207.47C107.312 188.553 83.4592 165.09 68.4843 136.742C62.7411 124.855 55.9944 109.689 56.6383 96.421C56.6958 91.4297 58.0462 86.5398 61.5612 83.3226L85.775 59.1088C87.6612 57.5037 89.5273 56.7074 91.2891 56.6034V56.6034Z" fill="url(#paint0_linear_19_9)"/>
<defs>
<linearGradient id="paint0_linear_19_9" x1="223.5" y1="31.5" x2="44" y2="234.5" gradientUnits="userSpaceOnUse">
<stop stop-color="#5078DE"/>
<stop offset="1" stop-color="#FF5B82"/>
</linearGradient>
</defs>
</svg>
