<svg width="284" height="277" viewBox="0 0 284 277" fill="none" xmlns="http://www.w3.org/2000/svg">
<path fill-rule="evenodd" clip-rule="evenodd" d="M141.574 0C104.028 0.00470653 68.0205 14.922 41.4713 41.4713C14.922 68.0205 0.00470653 104.028 0 141.574C0 204.089 40.825 257.073 96.4003 276.19C103.358 277.06 105.95 272.711 105.95 269.232V244.915C66.882 253.612 58.2023 225.816 58.2023 225.816C52.114 209.308 42.5645 204.959 42.5645 204.959C29.536 196.279 43.4165 196.279 43.4165 196.279C57.3148 197.149 65.1425 211.048 65.1425 211.048C78.171 232.756 98.1398 226.667 105.968 223.206C106.82 213.657 111.168 207.586 114.647 204.107C83.3718 200.628 50.3745 188.469 50.3745 133.746C50.3745 118.126 55.5753 105.95 65.1425 95.5305C64.255 92.9212 59.0543 78.171 66.882 59.0542C66.882 59.0542 79.0408 55.5752 105.95 73.8222C117.239 70.3432 129.415 69.4735 141.574 69.4735C153.733 69.4735 165.892 71.213 177.181 73.8222C204.107 55.593 216.266 59.0542 216.266 59.0542C224.076 78.171 218.858 92.9213 217.988 96.4003C227.553 106.821 232.828 120.471 232.756 134.616C232.756 189.339 199.741 200.628 168.501 204.107C173.702 208.438 178.05 217.118 178.05 230.146V269.232C178.05 272.711 180.642 277.042 187.6 276.19C215.751 266.689 240.205 248.581 257.504 224.424C274.803 200.268 284.071 171.286 284 141.574C283.13 63.403 219.745 0 141.574 0Z" fill="url(#paint0_linear_23_3)"/>
<defs>
<linearGradient id="paint0_linear_23_3" x1="14" y1="214.5" x2="253.5" y2="61" gradientUnits="userSpaceOnUse">
<stop stop-color="#FF7B9B"/>
<stop offset="1" stop-color="#608DFF"/>
</linearGradient>
</defs>
</svg>
