<svg width="284" height="284" viewBox="0 0 284 284" fill="none" xmlns="http://www.w3.org/2000/svg">
<g clip-path="url(#clip0_19_11)">
<path d="M142 0C104.339 0 68.221 14.9607 41.5908 41.5908C14.9607 68.221 0 104.339 0 142C0 179.661 14.9607 215.779 41.5908 242.409C68.221 269.039 104.339 284 142 284C179.661 284 215.779 269.039 242.409 242.409C269.039 215.779 284 179.661 284 142C284 104.339 269.039 68.221 242.409 41.5908C215.779 14.9607 179.661 0 142 0V0ZM71 71H213C215.538 71 217.988 71.5502 220.26 72.562L142 163.85L63.7403 72.562C66.0199 71.5259 68.496 70.9932 71 71ZM53.25 195.25V88.75L53.2855 87.6317L105.329 148.354L53.8535 199.83C53.4469 198.337 53.2439 196.797 53.25 195.25V195.25ZM213 213H71C69.438 213 67.8938 212.787 66.4205 212.396L116.937 161.88L142.018 191.132L167.098 161.88L217.615 212.396C216.123 212.803 214.582 213.006 213.035 213H213ZM230.75 195.25C230.75 196.812 230.537 198.356 230.146 199.83L178.671 148.354L230.715 87.6317L230.75 88.75V195.25Z" fill="url(#paint0_linear_19_11)"/>
</g>
<defs>
<linearGradient id="paint0_linear_19_11" x1="245" y1="29" x2="30.5" y2="248" gradientUnits="userSpaceOnUse">
<stop stop-color="#5078DE"/>
<stop offset="1" stop-color="#FF5B82"/>
</linearGradient>
<clipPath id="clip0_19_11">
<rect width="284" height="284" fill="white"/>
</clipPath>
</defs>
</svg>
